<?xml version="1.0" standalone="no"?>
<!DOCTYPE svg PUBLIC "-//W3C//DTD SVG 20010904//EN"
 "http://www.w3.org/TR/2001/REC-SVG-20010904/DTD/svg10.dtd">
<svg version="1.0" xmlns="http://www.w3.org/2000/svg"
 width="200.000000pt" height="200.000000pt" viewBox="0 0 200.000000 200.000000"
 preserveAspectRatio="xMidYMid meet">
<metadata>
Created by potrace 1.10, written by Peter Selinger 2001-2011
</metadata>
<g transform="translate(0.000000,200.000000) scale(0.100000,-0.100000)"
fill="#000000" stroke="none">
<path d="M1150 1374 c-14 -3 -32 -8 -40 -11 -8 -3 -28 -7 -45 -9 -17 -3 -42
-18 -59 -37 -21 -22 -28 -26 -23 -12 7 19 6 19 -7 2 -14 -18 -14 -18 -20 1
-19 60 -78 78 -152 47 -20 -8 -40 -13 -44 -10 -5 3 -15 -3 -22 -14 -8 -11 -25
-22 -38 -26 -20 -4 -29 0 -45 25 -23 34 -31 36 -71 15 -16 -8 -25 -15 -21 -15
4 0 -6 -13 -23 -30 -16 -16 -30 -32 -30 -35 0 -4 -7 -13 -15 -22 -8 -8 -13
-19 -10 -24 4 -5 2 -9 -4 -9 -27 0 -70 -242 -49 -282 4 -9 8 -27 8 -41 0 -13
11 -45 25 -72 13 -27 22 -52 20 -56 -3 -4 19 -29 47 -55 29 -26 47 -44 39 -39
-10 5 -12 4 -7 -4 4 -6 11 -9 16 -6 5 3 11 1 14 -4 4 -5 14 -8 24 -6 9 2 20 4
25 4 4 1 13 12 19 26 13 28 30 32 48 10 7 -8 21 -15 32 -15 12 0 17 -4 12 -12
-4 -6 -3 -8 3 -5 6 4 27 0 47 -8 74 -31 146 -8 146 48 l0 22 20 -25 c16 -20
19 -21 14 -5 -6 18 -4 17 21 -5 16 -14 25 -19 20 -11 -8 15 5 10 34 -13 7 -6
19 -11 25 -11 6 -1 31 -7 55 -14 47 -14 146 -7 157 10 3 5 9 7 14 4 11 -7 65
19 94 44 16 13 18 13 11 1 -5 -8 8 2 27 24 23 24 41 35 49 31 8 -5 10 -4 5 4
-5 7 3 28 17 49 93 135 68 348 -54 472 -24 24 -50 43 -56 42 -7 -2 -13 2 -13
7 0 5 -9 13 -20 16 -11 4 -18 10 -16 14 3 4 -7 6 -22 6 -15 -1 -31 2 -37 6
-13 10 -114 18 -145 13z m-233 -115 l-7 -81 48 51 c126 134 331 143 465 21
153 -140 153 -360 0 -500 -134 -122 -339 -113 -465 21 l-46 49 5 -80 c7 -91
10 -88 -77 -69 -60 13 -149 70 -185 118 -24 34 -25 39 -26 210 l-1 176 -20
-45 c-34 -73 -35 -161 -4 -253 18 -55 26 -98 26 -149 l0 -72 -46 44 c-92 90
-138 239 -115 368 6 37 23 90 37 118 25 52 98 144 115 144 5 0 9 -35 9 -77 l0
-78 25 35 c47 66 162 127 244 129 24 1 24 1 18 -80z"/>
<path d="M895 1140 c-17 -29 -20 -53 -20 -140 0 -87 3 -111 20 -140 l20 -35 3
88 c1 48 1 126 0 175 l-3 87 -20 -35z"/>
</g>
</svg>
