<?xml version="1.0" standalone="no"?>
<!DOCTYPE svg PUBLIC "-//W3C//DTD SVG 20010904//EN"
 "http://www.w3.org/TR/2001/REC-SVG-20010904/DTD/svg10.dtd">
<svg version="1.0" xmlns="http://www.w3.org/2000/svg"
 width="200.000000pt" height="189.000000pt" viewBox="0 0 200.000000 189.000000"
 preserveAspectRatio="xMidYMid meet">

<g transform="translate(0.000000,189.000000) scale(0.100000,-0.100000)"
fill="#000000" stroke="none">
<path d="M895 1860 c14 -6 2 -9 -42 -9 -34 -1 -65 -5 -68 -11 -3 -5 -21 -10
-40 -10 -19 0 -37 -4 -40 -10 -3 -5 -14 -10 -24 -10 -9 0 -35 -8 -57 -19 -21
-10 -58 -26 -81 -37 -24 -10 -43 -21 -43 -26 0 -4 -8 -8 -18 -8 -10 0 -28 -9
-40 -20 -12 -11 -23 -20 -26 -20 -18 0 -226 -208 -226 -226 0 -4 -13 -23 -28
-43 -33 -42 -102 -182 -102 -205 0 -9 -4 -16 -10 -16 -5 0 -10 -11 -10 -24 0
-14 -4 -28 -10 -31 -5 -3 -10 -33 -10 -66 0 -33 -4 -59 -10 -59 -6 0 -10 -28
-10 -65 0 -37 4 -65 10 -65 6 0 10 -26 10 -59 0 -33 5 -63 10 -66 6 -3 10 -22
10 -41 0 -21 4 -33 10 -29 6 3 10 -5 10 -19 0 -14 5 -28 10 -31 6 -3 10 -14
10 -23 0 -19 51 -125 63 -130 4 -2 7 -8 7 -13 0 -18 63 -79 82 -79 22 0 147
79 197 125 20 18 46 42 59 53 12 11 22 23 22 28 0 5 9 16 20 24 11 8 20 18 20
22 0 4 20 36 45 72 25 37 45 71 45 76 0 6 5 10 10 10 6 0 10 9 10 20 0 11 3
20 8 20 4 0 13 15 21 33 8 17 29 64 46 102 18 39 38 87 46 108 7 20 17 37 21
37 4 0 8 9 8 20 0 11 4 20 8 20 4 0 16 20 26 45 11 25 22 45 25 45 4 0 15 17
26 37 11 20 42 59 68 87 27 28 52 56 55 61 10 15 107 95 115 95 6 0 16 7 69
53 12 9 24 17 28 17 14 0 160 148 160 163 0 23 -62 67 -93 67 -14 0 -29 5 -32
10 -3 6 -44 10 -91 10 -54 0 -83 4 -79 10 4 6 -34 10 -107 9 -72 0 -106 -3
-93 -9z"/>
<path d="M1490 1650 c-19 -16 -38 -30 -41 -30 -3 0 -15 -22 -27 -48 -19 -41
-22 -67 -22 -165 0 -66 -4 -118 -10 -122 -18 -11 -11 -31 15 -45 20 -10 28
-11 37 -2 7 7 20 12 30 12 10 0 18 3 18 8 0 4 13 13 30 20 26 12 77 58 135
124 26 30 45 73 45 103 0 47 -24 127 -39 132 -9 3 -33 13 -54 24 -53 26 -76
24 -117 -11z"/>
<path d="M1293 1422 c-13 -2 -23 -8 -23 -13 0 -5 -5 -9 -11 -9 -7 0 -27 -16
-45 -35 -19 -18 -34 -33 -34 -31 0 2 -17 -13 -38 -33 -21 -20 -57 -51 -80 -69
-23 -19 -42 -40 -42 -48 0 -8 -4 -14 -10 -14 -5 0 -10 -13 -10 -30 0 -16 3
-30 8 -30 4 0 13 -12 19 -27 17 -37 55 -53 125 -53 50 0 62 4 93 31 19 17 35
37 35 45 0 8 5 14 10 14 6 0 10 11 10 24 0 14 5 28 10 31 6 3 10 26 10 51 0
28 4 43 10 39 6 -4 10 23 10 73 0 84 -4 91 -47 84z"/>
<path d="M1773 1395 c-6 -19 -9 -44 -6 -55 6 -24 -21 -70 -42 -70 -8 0 -15 -4
-15 -10 0 -5 -9 -10 -21 -10 -11 0 -17 -4 -14 -10 3 -5 -3 -10 -14 -10 -12 0
-21 -4 -21 -8 0 -4 -18 -19 -40 -32 -22 -14 -40 -28 -40 -32 0 -5 -6 -8 -13
-8 -17 0 -67 -48 -67 -65 0 -23 32 -27 246 -28 240 -1 237 -2 235 89 0 32 -6
74 -12 93 -42 131 -85 191 -137 191 -24 0 -30 -6 -39 -35z"/>
<path d="M1840 979 c-30 -11 -86 -24 -125 -30 -157 -21 -160 -22 -163 -49 -4
-39 46 -80 97 -80 22 0 43 -4 46 -10 3 -5 13 -10 21 -10 8 0 20 -5 27 -10 22
-19 82 -59 105 -71 12 -7 22 -18 22 -26 0 -7 5 -13 10 -13 6 0 10 -5 10 -10 0
-6 6 -17 13 -24 18 -20 73 42 81 92 18 111 18 122 7 122 -7 0 -11 22 -11 58 0
53 -2 60 -25 70 -34 16 -49 14 -115 -9z"/>
<path d="M1154 935 c-6 -16 19 -48 30 -38 3 4 6 1 6 -5 0 -6 16 -27 35 -47 20
-19 33 -35 30 -35 -4 0 20 -22 52 -50 32 -27 64 -50 71 -50 6 0 12 -4 12 -10
0 -5 7 -10 15 -10 8 0 15 -4 15 -10 0 -5 7 -10 15 -10 8 0 15 -4 15 -10 0 -5
5 -10 11 -10 21 0 151 -94 185 -134 21 -24 34 -50 34 -67 0 -15 4 -29 8 -31 5
-1 15 -16 23 -33 18 -38 64 -47 74 -15 4 12 9 19 13 16 7 -7 52 33 52 46 0 5
7 17 16 25 21 21 13 74 -15 105 -12 12 -21 27 -21 34 0 7 -16 18 -34 25 -19 7
-33 16 -30 20 2 4 -16 20 -41 36 -25 15 -45 31 -45 36 0 4 -9 7 -20 7 -11 0
-20 5 -20 10 0 6 -9 10 -20 10 -11 0 -20 5 -20 10 0 6 -11 10 -25 10 -14 0
-25 5 -25 10 0 6 -9 10 -20 10 -11 0 -20 4 -20 9 0 5 -14 11 -31 15 -28 5
-150 82 -157 99 -2 4 -13 7 -24 7 -12 0 -18 3 -15 7 9 9 -60 33 -96 33 -15 0
-30 -7 -33 -15z"/>
<path d="M863 833 c-7 -2 -13 -13 -13 -23 0 -10 -4 -22 -10 -25 -5 -3 -10 -15
-10 -27 0 -28 -51 -115 -93 -158 -40 -40 -114 -108 -182 -165 -87 -73 -175
-168 -175 -190 0 -12 56 -45 76 -45 8 0 26 -11 40 -25 14 -14 31 -25 39 -25
23 0 45 12 39 21 -3 5 0 9 5 9 6 0 19 18 28 40 10 22 21 40 25 40 5 0 8 7 8
15 0 8 5 15 10 15 6 0 10 9 10 20 0 11 5 20 10 20 6 0 10 7 10 15 0 8 5 15 10
15 6 0 10 6 10 13 0 12 82 67 100 67 6 0 10 4 10 8 0 5 11 14 24 20 14 6 37
22 53 36 15 14 48 43 73 64 l44 40 -2 68 c-2 38 -7 71 -12 72 -6 2 -10 15 -10
28 0 40 -73 75 -117 57z"/>
<path d="M1131 778 c-9 -15 -14 -45 -13 -81 3 -62 -15 -111 -70 -194 -15 -23
-28 -49 -28 -57 0 -9 -4 -16 -10 -16 -5 0 -10 -9 -10 -19 0 -11 -5 -23 -11
-26 -6 -4 -9 -44 -8 -103 2 -65 -1 -97 -9 -100 -6 -2 -14 -19 -18 -38 -3 -19
-10 -34 -16 -34 -5 0 -8 -17 -6 -37 3 -36 4 -37 63 -49 74 -16 125 -17 125 -4
0 6 22 10 49 10 28 0 53 5 56 10 3 6 20 10 36 10 33 0 59 20 59 44 0 9 5 16
10 16 6 0 10 25 10 55 0 49 -4 58 -35 90 -20 19 -42 35 -49 35 -26 0 -39 58
-36 163 7 217 2 308 -16 328 -23 26 -56 24 -73 -3z"/>
<path d="M1335 507 c-37 -45 -38 -48 -27 -59 7 -7 12 -20 12 -30 0 -10 5 -18
10 -18 6 0 10 -9 10 -20 0 -11 5 -20 10 -20 6 0 10 -7 10 -15 0 -8 5 -15 10
-15 6 0 10 -6 10 -13 0 -7 20 -34 45 -60 25 -27 45 -53 45 -58 0 -19 28 -39
54 -39 14 0 26 5 26 10 0 6 7 10 15 10 8 0 15 4 15 9 0 5 9 13 20 16 17 5 20
15 20 60 0 29 -6 63 -12 76 -26 49 -88 129 -88 113 0 -4 -9 5 -20 18 -30 39
-143 62 -165 35z"/>
<path d="M800 280 c0 -5 -7 -10 -14 -10 -16 0 -66 -60 -66 -78 0 -7 -4 -12
-10 -12 -6 0 -10 -29 -10 -66 0 -41 4 -63 10 -59 6 3 13 -1 16 -9 16 -41 104
-2 104 46 0 13 14 52 30 86 36 74 35 73 10 95 -22 18 -70 23 -70 7z"/>
</g>
</svg>
