<?xml version="1.0" standalone="no"?>
<!DOCTYPE svg PUBLIC "-//W3C//DTD SVG 20010904//EN"
 "http://www.w3.org/TR/2001/REC-SVG-20010904/DTD/svg10.dtd">
<svg version="1.0" xmlns="http://www.w3.org/2000/svg"
 width="200.000000pt" height="200.000000pt" viewBox="0 0 200.000000 200.000000"
 preserveAspectRatio="xMidYMid meet">
<metadata>
Created by potrace 1.10, written by Peter Selinger 2001-2011
</metadata>
<g transform="translate(0.000000,200.000000) scale(0.100000,-0.100000)"
fill="#000000" stroke="none">
<path d="M810 1140 c12 -8 11 -10 -7 -10 -13 0 -23 -6 -23 -12 0 -9 -4 -8 -10
2 -7 11 -10 6 -10 -20 0 -26 -3 -31 -10 -20 -7 11 -10 3 -10 -30 0 -33 3 -41
10 -30 8 13 10 12 10 -3 0 -21 23 -47 40 -47 17 0 40 -26 40 -44 0 -11 -9 -16
-30 -16 -24 0 -30 4 -30 23 0 18 -2 19 -10 7 -8 -12 -10 -11 -10 8 0 13 -6 22
-16 22 -21 0 -44 -25 -43 -47 0 -16 1 -16 9 2 7 16 9 12 9 -20 1 -30 4 -36 11
-25 6 10 10 11 10 3 0 -7 10 -13 23 -13 18 0 19 -2 7 -10 -11 -7 4 -10 50 -10
46 0 61 3 50 10 -12 8 -9 10 13 10 31 0 57 20 57 44 0 9 5 16 10 16 6 0 9 15
9 33 l-1 32 -8 -30 -8 -30 -1 33 c-1 37 -20 62 -48 62 -15 0 -16 2 -3 10 13 8
12 10 -3 10 -17 0 -47 22 -47 34 0 15 55 3 71 -15 16 -19 20 -20 34 -6 8 9 15
25 15 37 0 38 -23 50 -97 50 -48 0 -63 -3 -53 -10z m9 -73 c6 -8 8 -17 4 -20
-3 -4 9 -13 28 -21 45 -19 71 -47 59 -66 -6 -9 -4 -20 3 -29 10 -12 9 -14 -5
-8 -10 3 -18 2 -18 -4 0 -6 -6 -9 -12 -6 -7 2 -12 14 -10 27 2 13 0 20 -7 16
-6 -4 -13 4 -17 19 -3 14 -10 25 -16 25 -5 0 -7 4 -4 9 4 5 -2 7 -13 4 -10 -3
-22 1 -26 8 -5 8 -4 10 3 5 7 -4 12 -2 12 3 0 6 -4 11 -8 11 -4 0 -8 9 -9 20
-2 23 19 27 36 7z"/>
<path d="M90 1120 c12 -8 9 -10 -13 -10 -29 0 -57 -20 -57 -40 0 -6 -4 -8 -10
-5 -5 3 -10 1 -10 -4 0 -6 12 -11 26 -11 14 0 23 4 19 10 -3 6 -1 10 4 10 7 0
11 -23 11 -56 0 -57 -14 -84 -44 -84 -9 0 -16 -4 -16 -10 0 -5 6 -10 13 -10 8
0 7 -4 -3 -10 -10 -7 13 -10 73 -10 63 0 92 4 103 14 21 21 18 26 -16 26 l-30
0 1 63 c1 46 3 56 9 37 7 -21 8 -19 9 18 1 23 6 42 11 42 6 0 10 9 10 20 0 17
-7 20 -52 20 -38 0 -49 -3 -38 -10z m14 -152 c-4 -26 -2 -30 6 -18 10 13 11
13 7 0 -2 -8 -10 -15 -18 -15 -13 0 -15 20 -4 53 8 23 13 12 9 -20z"/>
<path d="M290 1120 c13 -8 12 -10 -3 -10 -23 0 -47 -23 -47 -44 0 -9 8 -16 20
-16 11 0 20 5 20 10 0 6 14 10 30 10 46 0 38 -23 -30 -90 -82 -81 -80 -90 20
-90 47 0 80 -4 80 -10 0 -5 9 -10 20 -10 16 0 20 7 20 33 0 24 3 28 10 17 7
-11 10 -4 10 28 0 34 -4 42 -18 42 -10 0 -24 -9 -32 -20 -17 -24 -30 -26 -30
-4 0 9 14 29 30 44 17 15 30 36 30 47 0 15 2 16 10 3 8 -12 10 -9 10 13 0 45
-20 57 -97 57 -48 0 -63 -3 -53 -10z m48 -177 c-7 -10 -21 -19 -30 -19 -16 -1
-16 0 -1 23 12 18 18 21 24 11 6 -9 9 -5 10 12 1 17 3 19 6 8 2 -10 -2 -26 -9
-35z"/>
<path d="M503 1105 c-28 -30 -30 -55 -3 -55 11 0 20 5 20 10 0 6 14 10 30 10
23 0 30 -4 30 -20 0 -12 -7 -20 -16 -20 -20 0 -44 -24 -44 -44 0 -11 9 -16 30
-16 27 0 30 -3 30 -30 0 -30 0 -30 -60 -30 -53 0 -60 -2 -60 -20 0 -14 7 -20
23 -20 18 0 19 -2 7 -10 -11 -7 4 -10 50 -10 46 0 61 3 50 10 -11 7 -7 10 18
10 26 0 32 4 32 23 0 18 2 19 10 7 8 -12 10 -11 10 8 0 12 5 22 10 22 18 0 11
55 -10 70 -21 15 -28 50 -10 50 6 0 10 18 10 40 l0 40 -67 -1 c-58 0 -71 -4
-90 -24z m97 -80 c-10 -12 -9 -15 4 -15 10 0 15 -4 12 -9 -4 -5 -1 -11 5 -13
5 -2 7 -11 3 -21 -5 -14 -9 -12 -23 15 -12 25 -14 39 -6 55 5 12 12 18 13 12
2 -5 -2 -16 -8 -24z"/>
<path d="M1033 1115 c-7 -8 -13 -21 -13 -30 0 -8 -9 -15 -20 -15 -13 0 -20 -7
-20 -20 0 -11 5 -20 10 -20 6 0 10 -28 9 -67 -1 -53 -3 -61 -9 -38 -8 30 -8
29 -9 -8 -1 -45 17 -67 56 -67 22 0 25 2 13 10 -12 8 -9 10 13 10 31 0 57 20
57 44 0 9 -7 16 -16 16 -8 0 -12 -4 -9 -10 3 -5 1 -10 -4 -10 -6 0 -11 20 -11
46 0 47 16 74 44 74 9 0 16 8 16 20 0 13 -7 20 -20 20 -16 0 -20 7 -20 30 0
26 -4 30 -27 30 -16 -1 -34 -7 -40 -15z m32 -56 c-4 -6 1 -17 11 -25 14 -10
14 -12 3 -9 -22 8 -44 -62 -26 -84 10 -12 9 -13 -1 -7 -10 6 -11 1 -7 -21 l6
-28 -15 25 c-8 14 -11 27 -7 30 3 3 6 20 6 38 -1 17 3 32 7 32 5 0 6 5 3 10
-4 6 -10 8 -15 5 -4 -3 -7 2 -6 11 2 15 23 34 39 34 5 0 5 -5 2 -11z"/>
<path d="M1230 1060 c13 -8 12 -10 -3 -10 -10 0 -33 -16 -52 -35 -29 -28 -35
-42 -35 -75 0 -43 17 -70 44 -70 9 0 16 -4 16 -10 0 -5 19 -10 43 -10 31 0 38
3 27 10 -12 8 -9 10 13 10 16 0 38 10 52 25 22 21 25 33 25 90 0 58 -2 65 -20
65 -11 0 -20 5 -20 10 0 6 -24 10 -52 10 -38 0 -49 -3 -38 -10z m50 -92 c0
-45 -3 -59 -10 -48 -8 12 -10 11 -10 -7 0 -13 -4 -23 -10 -23 -6 0 -10 30 -10
70 0 63 2 70 20 70 18 0 20 -7 20 -62z"/>
<path d="M1450 1060 c12 -7 8 -10 -14 -10 -33 0 -67 -33 -65 -64 2 -20 2 -20
6 2 3 14 12 22 24 22 16 0 19 -7 19 -40 0 -22 -4 -40 -10 -40 -5 0 -10 -18
-10 -40 l0 -40 43 0 c31 0 38 3 27 10 -12 8 -11 10 8 10 21 0 22 4 22 70 0 43
4 70 11 70 5 0 7 -4 4 -10 -3 -5 1 -10 9 -10 9 0 16 -4 16 -10 0 -5 9 -10 20
-10 15 0 20 7 20 26 0 14 4 23 10 19 6 -3 10 -1 10 4 0 6 -4 11 -10 11 -5 0
-10 9 -10 20 0 16 -7 20 -30 20 -23 0 -30 -4 -30 -20 0 -13 -7 -20 -20 -20
-13 0 -20 7 -20 20 0 14 -7 20 -22 20 -19 0 -20 -2 -8 -10z"/>
<path d="M1710 1060 c12 -8 9 -10 -13 -10 -32 0 -77 -39 -77 -67 0 -15 -2 -16
-10 -3 -7 11 -10 0 -10 -37 0 -36 4 -53 13 -53 8 0 7 -4 -3 -10 -11 -7 -6 -10
20 -10 26 0 31 -3 20 -10 -11 -7 1 -10 40 -10 39 0 51 3 40 10 -12 8 -9 10 13
10 16 0 35 6 43 14 21 21 17 46 -6 46 -11 0 -20 -4 -20 -10 0 -5 -18 -10 -40
-10 -22 0 -40 5 -40 10 0 6 15 10 33 10 24 0 28 3 17 10 -12 8 -9 10 13 10 41
0 57 21 57 74 l0 46 -52 0 c-38 0 -49 -3 -38 -10z m30 -51 c0 -11 -4 -17 -10
-14 -5 3 -10 -1 -10 -9 0 -9 -9 -16 -20 -16 -14 0 -20 7 -20 23 0 18 2 19 10
7 8 -12 10 -11 10 8 0 15 6 22 20 22 14 0 20 -7 20 -21z m-74 -72 c-6 -49 -11
-54 -25 -28 -14 26 -5 68 15 68 11 0 13 -10 10 -40z"/>
<path d="M1890 1060 c13 -8 12 -10 -3 -10 -29 0 -47 -26 -46 -67 0 -21 3 -32
6 -26 3 10 8 10 19 -1 16 -17 19 -66 4 -66 -5 0 -10 5 -10 10 0 6 -9 10 -20
10 -13 0 -20 -7 -20 -20 0 -14 7 -20 23 -20 18 0 19 -2 7 -10 -11 -7 1 -10 40
-10 39 0 51 3 40 10 -11 7 -7 10 18 10 32 0 32 1 32 48 0 36 -5 51 -20 62 -21
15 -28 50 -10 50 6 0 10 -4 10 -10 0 -5 9 -10 20 -10 12 0 20 7 20 16 0 28
-27 44 -77 44 -35 0 -44 -3 -33 -10z m14 -66 c-2 -19 1 -24 13 -20 10 4 13 2
10 -7 -3 -8 -1 -20 5 -28 8 -11 8 -10 4 5 -5 16 -4 17 8 7 21 -17 -1 -43 -25
-30 -9 4 -18 7 -20 6 -3 -1 -1 2 3 7 4 5 0 19 -9 32 -11 18 -13 28 -4 37 6 8
7 18 3 22 -4 5 -2 5 4 2 6 -4 10 -18 8 -33z"/>
</g>
</svg>
