<?xml version="1.0" standalone="no"?>
<!DOCTYPE svg PUBLIC "-//W3C//DTD SVG 20010904//EN"
 "http://www.w3.org/TR/2001/REC-SVG-20010904/DTD/svg10.dtd">
<svg version="1.0" xmlns="http://www.w3.org/2000/svg"
 width="141.000000pt" height="119.000000pt" viewBox="0 0 141.000000 119.000000"
 preserveAspectRatio="xMidYMid meet">

<g transform="translate(0.000000,119.000000) scale(0.100000,-0.100000)"
fill="#000000" stroke="none">
<path d="M51 1172 c-9 -16 -51 -124 -51 -129 0 -11 29 0 34 12 3 9 18 15 40
15 21 0 36 -6 40 -15 7 -18 26 -20 26 -2 0 26 -54 137 -66 137 -7 0 -18 -8
-23 -18z m35 -69 c-2 -3 -11 -3 -19 -1 -11 2 -12 9 -5 28 l10 25 9 -24 c5 -13
7 -26 5 -28z"/>
<path d="M180 1114 l0 -77 42 6 c74 10 102 74 53 122 -16 17 -35 25 -60 25
l-35 0 0 -76z m78 34 c29 -29 7 -78 -35 -78 -21 0 -23 5 -23 45 0 40 2 45 23
45 13 0 28 -5 35 -12z"/>
<path d="M330 1115 c0 -60 3 -75 15 -75 12 0 15 15 15 75 0 60 -3 75 -15 75
-12 0 -15 -15 -15 -75z"/>
<path d="M380 1180 c0 -6 7 -13 15 -16 11 -5 15 -22 15 -65 0 -46 3 -59 15
-59 12 0 15 13 15 60 0 47 3 60 15 60 8 0 15 7 15 15 0 11 -12 15 -45 15 -25
0 -45 -5 -45 -10z"/>
<path d="M490 1183 c0 -5 9 -21 20 -38 11 -16 20 -47 20 -67 0 -27 4 -38 15
-38 11 0 15 11 15 38 0 20 9 51 20 67 23 35 25 45 7 45 -7 0 -20 -12 -29 -27
l-17 -28 -10 28 c-9 24 -41 39 -41 20z"/>
<path d="M651 1168 c-5 -13 -19 -45 -30 -71 -25 -58 -25 -57 -7 -57 8 0 16 7
20 15 7 20 66 19 81 -1 6 -9 17 -15 22 -13 16 6 -41 143 -61 147 -9 2 -20 -6
-25 -20z m33 -66 c-22 -5 -27 3 -19 29 l7 22 14 -24 c11 -20 10 -25 -2 -27z"/>
<path d="M842 1118 c3 -71 4 -73 30 -76 38 -5 68 14 68 43 0 13 -5 27 -10 30
-6 4 -8 16 -5 26 9 29 -12 49 -52 49 l-34 0 3 -72z m56 31 c-2 -6 -8 -10 -13
-10 -5 0 -11 4 -13 10 -2 6 4 11 13 11 9 0 15 -5 13 -11z m10 -62 c2 -12 -3
-17 -17 -17 -15 0 -21 6 -21 21 0 25 33 22 38 -4z"/>
<path d="M972 1118 c2 -46 7 -73 16 -76 9 -3 12 16 12 72 0 62 -3 76 -15 76
-13 0 -15 -12 -13 -72z"/>
<path d="M1040 1115 c0 -59 3 -75 14 -75 9 0 16 12 18 33 l3 32 18 -32 c10
-18 24 -33 32 -33 19 0 19 5 -1 35 -14 22 -14 26 0 47 9 12 16 26 16 30 0 18
-35 38 -66 38 l-34 0 0 -75z m68 33 c-7 -19 -38 -22 -38 -4 0 10 9 16 21 16
12 0 19 -5 17 -12z"/>
<path d="M1170 1115 l0 -75 34 0 c21 0 36 6 40 15 4 11 -1 15 -19 15 -24 0
-25 3 -25 60 0 47 -3 60 -15 60 -12 0 -15 -15 -15 -75z"/>
<path d="M1313 1173 c-3 -10 -17 -42 -30 -72 -12 -29 -23 -55 -23 -57 0 -11
32 -2 36 11 8 21 70 20 82 -1 5 -9 14 -15 20 -13 6 2 -1 32 -18 74 -28 71 -54
93 -67 58z m31 -71 c-22 -5 -27 3 -19 29 l7 22 14 -24 c11 -20 10 -25 -2 -27z"/>
<path d="M1 708 c1 -293 1 -309 15 -248 20 97 61 184 125 271 51 68 159 169
182 169 4 0 45 -79 92 -176 87 -182 89 -191 51 -224 -9 -7 -16 -16 -16 -20 0
-10 220 -154 225 -148 3 2 -34 49 -80 104 -47 54 -85 102 -85 106 0 4 14 15
30 25 17 9 30 20 30 24 0 7 -85 119 -155 204 -23 28 -51 64 -64 82 l-22 32 62
32 c35 17 103 42 153 55 l91 23 -317 1 -318 0 1 -312z"/>
<path d="M705 1007 c-2 -7 -11 -77 -20 -157 -8 -80 -18 -164 -21 -187 -6 -39
-4 -43 15 -43 20 0 21 -4 20 -122 l-1 -123 -18 114 c-10 62 -21 115 -23 118
-9 8 -77 -9 -77 -20 0 -17 113 -257 119 -252 7 7 9 20 30 152 9 62 20 115 23
119 3 3 22 1 42 -4 41 -12 35 -18 185 182 44 60 81 107 81 104 0 -5 -109 -248
-136 -302 -19 -39 -18 -43 12 -79 l25 -30 -116 -76 c-137 -91 -142 -91 -312
-42 -62 18 -117 30 -123 26 -5 -3 -10 -22 -10 -41 l0 -34 157 0 c154 0 159 1
289 40 73 22 137 40 143 40 6 0 14 -18 17 -40 l7 -40 200 0 200 0 -7 68 c-35
346 -294 598 -654 636 -28 3 -45 0 -47 -7z m25 -227 c6 -63 13 -125 16 -137 4
-19 0 -23 -21 -23 l-25 0 1 163 c1 180 10 179 29 -3z m575 -189 c-8 -7 -245
-157 -292 -185 -13 -7 -52 58 -41 70 5 4 322 121 338 123 2 1 0 -3 -5 -8z"/>
<path d="M70 588 c5 -5 105 -62 225 -128 33 -18 69 -39 80 -46 11 -8 23 -14
27 -14 10 0 43 68 37 75 -3 2 -80 27 -171 55 -90 27 -173 52 -184 56 -10 4
-17 5 -14 2z"/>
<path d="M809 542 c-69 -154 -90 -204 -87 -207 4 -4 171 190 175 203 2 4 -13
17 -32 29 l-34 23 -22 -48z"/>
<path d="M0 140 l0 -140 705 0 705 0 0 140 0 140 -705 0 -705 0 0 -140z m535
60 c-3 -5 -10 -10 -16 -10 -5 0 -9 5 -9 10 0 6 7 10 16 10 8 0 12 -4 9 -10z
m-215 -27 c15 9 22 9 31 0 8 -8 18 -9 30 -3 32 18 49 2 49 -45 0 -25 5 -45 13
-48 6 -3 -4 -5 -23 -5 -19 0 -29 2 -22 5 7 2 12 22 12 44 0 33 -3 39 -21 39
-19 0 -21 -5 -17 -45 3 -40 1 -45 -17 -45 -18 0 -20 5 -16 46 3 40 1 45 -15
42 -14 -2 -19 -13 -20 -38 -1 -19 4 -38 10 -42 6 -4 0 -8 -14 -8 -23 0 -25 3
-24 44 1 45 14 80 22 58 2 -8 8 -8 22 1z m341 -2 c29 15 46 -4 51 -56 3 -42 2
-45 -22 -45 -17 0 -21 3 -12 9 8 5 12 22 10 42 -2 26 -8 34 -23 34 -17 0 -20
-7 -20 -43 0 -31 -4 -42 -15 -42 -11 0 -15 11 -14 44 1 46 14 80 22 58 3 -9 9
-9 23 -1z m187 -44 c2 -31 7 -45 14 -41 6 4 8 3 5 -3 -3 -5 -27 -10 -52 -11
-46 0 -57 12 -33 36 18 18 27 14 20 -10 -3 -13 -1 -19 5 -15 11 7 16 87 6 87
-3 0 -12 -8 -19 -17 -7 -10 -16 -14 -21 -10 -11 12 28 38 52 35 16 -2 21 -12
23 -51z m160 28 c3 -20 3 -20 -13 0 -20 25 -49 10 -53 -28 -4 -28 28 -53 54
-43 9 3 12 1 9 -4 -3 -6 -19 -10 -35 -10 -38 0 -67 39 -51 69 23 43 83 54 89
16z m130 5 c4 -12 2 -13 -9 -2 -7 6 -19 12 -26 12 -22 0 -14 -20 12 -32 20 -9
25 -18 23 -37 -2 -21 -9 -27 -35 -29 -26 -3 -33 0 -33 14 0 14 3 15 12 6 7 -7
18 -12 25 -12 22 0 14 26 -12 38 -27 13 -32 31 -13 50 16 16 50 11 56 -8z
m-607 -35 c2 -22 8 -43 13 -47 6 -4 0 -8 -14 -8 -23 0 -25 4 -25 42 0 24 4 46
10 50 13 9 14 8 16 -37z"/>
</g>
</svg>
