<?xml version="1.0" standalone="no"?>
<!DOCTYPE svg PUBLIC "-//W3C//DTD SVG 20010904//EN"
 "http://www.w3.org/TR/2001/REC-SVG-20010904/DTD/svg10.dtd">
<svg version="1.0" xmlns="http://www.w3.org/2000/svg"
 width="200.000000pt" height="200.000000pt" viewBox="0 0 200.000000 200.000000"
 preserveAspectRatio="xMidYMid meet">
<metadata>
Created by potrace 1.10, written by Peter Selinger 2001-2011
</metadata>
<g transform="translate(0.000000,200.000000) scale(0.100000,-0.100000)"
fill="#000000" stroke="none">
<path d="M1229 1460 c-98 -52 -198 -220 -251 -423 -30 -112 -32 -347 -4 -454
19 -77 36 -88 36 -24 0 57 36 187 75 269 73 155 170 271 292 348 65 42 90 75
98 127 10 67 -26 132 -92 166 -33 17 -114 12 -154 -9z m93 -17 c18 -16 18 -16
12 0 -8 21 -3 21 41 0 22 -11 34 -22 30 -31 -2 -7 -1 -10 5 -7 14 9 32 -33 35
-84 3 -43 1 -49 -42 -89 -24 -23 -49 -39 -55 -36 -6 4 -8 3 -5 -3 4 -5 -6 -16
-20 -24 -25 -13 -78 -64 -145 -139 -16 -17 -28 -27 -28 -23 0 5 -18 -28 -40
-72 -22 -44 -44 -81 -49 -83 -6 -2 -7 -10 -4 -19 5 -12 3 -14 -7 -8 -10 6 -12
4 -7 -7 3 -9 -1 -24 -8 -35 -8 -10 -15 -28 -15 -40 0 -13 -4 -23 -10 -23 -5 0
-10 -12 -10 -26 0 -16 -4 -23 -11 -18 -17 10 -4 293 16 364 29 100 80 220 93
220 7 0 10 5 7 10 -4 6 12 33 34 61 23 29 41 56 41 61 0 5 4 7 9 4 5 -4 11 -1
13 5 4 12 76 57 92 58 5 1 18 -7 28 -16z"/>
<path d="M565 1413 c-57 -14 -100 -97 -74 -144 18 -34 27 -42 97 -79 100 -53
207 -175 247 -282 28 -75 39 -60 32 45 -14 198 -107 382 -231 454 -22 13 -37
14 -71 6z m80 -43 c28 -17 85 -88 85 -105 0 -4 11 -21 24 -38 47 -61 84 -188
65 -218 -7 -11 -9 -10 -9 3 0 9 -9 24 -21 32 -12 8 -18 19 -15 24 3 5 -1 15
-9 22 -8 7 -15 9 -15 4 0 -5 -8 3 -17 16 -10 14 -17 28 -16 32 2 4 -4 5 -12 2
-10 -4 -15 0 -15 15 0 12 -6 21 -12 19 -12 -2 -96 46 -108 62 -3 3 -13 9 -22
13 -9 3 -21 21 -26 39 -11 42 12 85 48 91 14 2 29 5 34 6 5 0 23 -8 41 -19z"/>
<path d="M448 953 c-47 -29 -60 -81 -33 -132 17 -34 49 -47 130 -56 65 -6 134
-23 150 -37 5 -4 15 -8 23 -8 7 0 38 -16 68 -36 30 -20 57 -35 59 -32 13 12
-60 123 -126 190 -110 113 -205 152 -271 111z m100 -26 c23 -7 40 -16 36 -20
-4 -4 -1 -7 7 -7 26 0 98 -52 92 -67 -3 -7 1 -13 9 -13 19 0 52 -36 44 -48 -3
-6 1 -12 9 -16 8 -3 15 -11 14 -18 0 -10 -2 -10 -6 0 -2 6 -13 12 -23 12 -10
0 -25 6 -33 14 -14 14 -32 18 -152 32 -32 4 -65 13 -73 21 -7 7 -18 10 -24 7
-7 -5 -8 -2 -3 6 4 7 2 16 -6 21 -11 6 -9 12 6 29 18 20 18 21 0 14 -13 -5
-16 -4 -11 4 4 7 14 12 22 12 8 0 17 7 20 15 7 18 17 18 72 2z"/>
<path d="M1425 951 c-89 -40 -206 -160 -253 -258 -18 -38 -10 -53 15 -30 52
46 182 94 287 104 78 7 111 28 125 80 7 23 5 40 -7 65 -30 58 -93 73 -167 39z
m116 -26 c1 -5 1 -14 0 -18 -1 -5 3 -6 9 -2 5 3 10 1 10 -5 0 -6 4 -9 9 -6 5
4 5 -9 1 -30 -10 -41 -34 -63 -72 -64 -15 0 -60 -7 -100 -16 -40 -10 -83 -17
-95 -18 -11 -1 -19 -4 -17 -7 2 -3 -8 -11 -21 -17 -19 -9 -24 -9 -22 0 4 21
30 47 40 41 6 -3 7 -2 4 3 -9 15 10 39 30 39 10 0 17 6 15 13 -3 15 21 42 37
42 5 0 14 7 19 15 4 9 18 17 30 18 12 1 22 5 22 8 0 4 15 9 33 11 51 6 67 4
68 -7z"/>
</g>
</svg>
