<?xml version="1.0" standalone="no"?>
<!DOCTYPE svg PUBLIC "-//W3C//DTD SVG 20010904//EN"
 "http://www.w3.org/TR/2001/REC-SVG-20010904/DTD/svg10.dtd">
<svg version="1.0" xmlns="http://www.w3.org/2000/svg"
 width="225.000000pt" height="225.000000pt" viewBox="0 0 225.000000 225.000000"
 preserveAspectRatio="xMidYMid meet">

<g transform="translate(0.000000,225.000000) scale(0.100000,-0.100000)"
fill="#000000" stroke="none">
<path d="M1211 2117 c-8 -10 -9 -22 -4 -31 13 -24 645 -641 670 -654 66 -36
143 12 143 88 0 39 -6 48 -72 117 -40 42 -157 155 -259 253 l-186 178 -84 26
c-112 35 -190 44 -208 23z"/>
<path d="M791 2089 c-29 -10 -60 -24 -67 -30 -33 -27 -14 -54 178 -246 182
-182 195 -193 230 -193 56 0 103 45 103 97 0 38 -9 49 -164 211 -148 153 -183
183 -216 181 -5 0 -34 -9 -64 -20z"/>
<path d="M424 1871 c-47 -29 -87 -86 -80 -114 3 -13 314 -330 700 -715 558
-556 700 -692 721 -692 36 0 115 80 115 117 0 24 -108 136 -698 726 -383 383
-704 697 -712 697 -8 0 -29 -9 -46 -19z"/>
<path d="M1270 1554 c-28 -6 -50 -30 -50 -54 0 -9 176 -186 390 -394 364 -351
393 -377 423 -374 30 3 32 7 55 77 19 61 21 80 11 100 -10 24 -629 614 -663
633 -19 11 -131 18 -166 12z"/>
<path d="M156 1488 c-23 -37 -47 -133 -39 -155 5 -12 105 -112 223 -224 118
-111 265 -251 326 -310 123 -118 143 -127 255 -117 62 6 87 27 73 63 -5 14
-182 191 -393 395 -278 267 -391 370 -408 370 -12 0 -29 -10 -37 -22z"/>
<path d="M260 807 c-32 -16 -63 -77 -55 -110 4 -14 115 -133 258 -275 l252
-250 85 -26 c47 -15 115 -30 153 -33 66 -6 67 -5 67 18 0 23 -208 237 -571
587 -112 108 -132 117 -189 89z"/>
<path d="M1024 586 c-67 -67 -44 -105 200 -345 115 -113 116 -114 155 -107 60
9 128 42 136 65 3 11 2 28 -4 38 -5 10 -92 100 -193 201 -174 172 -186 182
-222 182 -30 0 -45 -7 -72 -34z"/>
</g>
</svg>
